<svg width="44" height="20" viewBox="0 0 44 20" fill="none" xmlns="http://www.w3.org/2000/svg">
<path d="M21.984 16V7.54H25.488C26.4 7.54 27.104 7.768 27.6 8.224C28.096 8.672 28.344 9.304 28.344 10.12C28.344 10.944 28.096 11.584 27.6 12.04C27.104 12.488 26.4 12.712 25.488 12.712H23.232V16H21.984ZM23.232 11.716H25.308C26.524 11.716 27.132 11.184 27.132 10.12C27.132 9.064 26.524 8.536 25.308 8.536H23.232V11.716ZM31.1303 16.108C30.7223 16.108 30.3583 16.028 30.0383 15.868C29.7183 15.708 29.4623 15.492 29.2703 15.22C29.0863 14.948 28.9943 14.64 28.9943 14.296C28.9943 13.864 29.1023 13.524 29.3183 13.276C29.5423 13.028 29.9063 12.848 30.4103 12.736C30.9223 12.624 31.6103 12.568 32.4743 12.568H32.8823V12.256C32.8823 11.8 32.7863 11.472 32.5943 11.272C32.4023 11.072 32.0863 10.972 31.6463 10.972C31.3103 10.972 30.9743 11.024 30.6383 11.128C30.3023 11.224 29.9583 11.38 29.6063 11.596L29.2343 10.744C29.5383 10.528 29.9183 10.356 30.3743 10.228C30.8303 10.1 31.2663 10.036 31.6823 10.036C32.4823 10.036 33.0743 10.228 33.4583 10.612C33.8423 10.988 34.0343 11.58 34.0343 12.388V16H32.8943V15.028C32.7503 15.364 32.5263 15.628 32.2223 15.82C31.9183 16.012 31.5543 16.108 31.1303 16.108ZM31.3703 15.244C31.8023 15.244 32.1623 15.092 32.4503 14.788C32.7383 14.484 32.8823 14.1 32.8823 13.636V13.312H32.4863C31.9023 13.312 31.4423 13.34 31.1063 13.396C30.7783 13.452 30.5423 13.548 30.3983 13.684C30.2623 13.812 30.1943 13.992 30.1943 14.224C30.1943 14.528 30.2983 14.776 30.5063 14.968C30.7143 15.152 31.0023 15.244 31.3703 15.244ZM36.245 18.16L37.289 15.844L34.841 10.144H36.137L37.937 14.596L39.761 10.144H41.009L37.517 18.16H36.245Z" fill="black"/>
<path fill-rule="evenodd" clip-rule="evenodd" d="M8.6199 5.06659C7.4554 4.54329 6.12461 4.41164 4.8635 4.69499C2.00686 5.33683 0 7.66694 0 10.3419V10.8901C0 14.0567 1.64999 17.0362 4.44814 18.9222L5.12383 19.3777C6.02792 19.9871 7.2312 20.0853 8.2401 19.6318L9.0665 19.2605C9.3577 19.1297 9.7006 19.1355 9.9861 19.2761L10.7868 19.6706C11.8265 20.1828 13.1002 20.0919 14.0394 19.4386L14.789 18.9171C16.0975 18.0068 17.1457 16.8549 17.8812 15.558C18.0312 15.2933 18.0292 14.9787 17.8758 14.7156C17.7223 14.4525 17.4368 14.2745 17.1116 14.2389C15.4981 14.0626 14.2241 12.7882 14.2241 11.2207C14.2241 9.66457 15.4797 8.39711 17.0765 8.20639C17.433 8.16383 17.7369 7.95054 17.8724 7.64778C18.008 7.34503 17.9543 6.99944 17.7318 6.74265C16.874 5.75273 15.6621 5.01445 14.2403 4.69499C12.9792 4.41164 11.6485 4.54329 10.4839 5.06659L9.5519 5.48541L8.6199 5.06659Z" fill="black"/>
<path fill-rule="evenodd" clip-rule="evenodd" d="M11 0C9.3431 0 8 1.22097 8 2.7271V3.63613C8 4.13817 8.4477 4.54516 9 4.54516H10C11.6569 4.54516 13 3.32419 13 1.81806V0.909032C13 0.406992 12.5523 0 12 0H11Z" fill="black"/>
</svg>
