<svg width="98" height="18" viewBox="0 0 98 18" fill="none" xmlns="http://www.w3.org/2000/svg">
<path d="M36.776 14.108C35.92 14.108 35.188 13.932 34.58 13.58C33.972 13.228 33.504 12.728 33.176 12.08C32.856 11.424 32.696 10.652 32.696 9.764C32.696 8.876 32.856 8.108 33.176 7.46C33.504 6.812 33.972 6.312 34.58 5.96C35.188 5.608 35.92 5.432 36.776 5.432C37.352 5.432 37.888 5.524 38.384 5.708C38.888 5.884 39.308 6.14 39.644 6.476L39.212 7.472C38.844 7.144 38.464 6.908 38.072 6.764C37.688 6.612 37.268 6.536 36.812 6.536C35.9 6.536 35.204 6.816 34.724 7.376C34.244 7.936 34.004 8.732 34.004 9.764C34.004 10.796 34.244 11.596 34.724 12.164C35.204 12.724 35.9 13.004 36.812 13.004C37.268 13.004 37.688 12.932 38.072 12.788C38.464 12.636 38.844 12.396 39.212 12.068L39.644 13.064C39.308 13.392 38.888 13.648 38.384 13.832C37.888 14.016 37.352 14.108 36.776 14.108ZM40.9614 14V8.144H42.1374V9.188C42.4414 8.492 43.0734 8.104 44.0334 8.024L44.4294 8L44.5134 9.032L43.7814 9.104C42.7174 9.208 42.1854 9.756 42.1854 10.748V14H40.9614ZM48.1039 14.108C47.1439 14.108 46.3879 13.84 45.8359 13.304C45.2839 12.76 45.0079 12.02 45.0079 11.084C45.0079 10.484 45.1279 9.956 45.3679 9.5C45.6159 9.036 45.9559 8.676 46.3879 8.42C46.8199 8.164 47.3159 8.036 47.8759 8.036C48.6839 8.036 49.3199 8.296 49.7839 8.816C50.2479 9.328 50.4799 10.036 50.4799 10.94V11.348H46.1839C46.2719 12.564 46.9159 13.172 48.1159 13.172C48.4519 13.172 48.7799 13.12 49.0999 13.016C49.4279 12.912 49.7359 12.74 50.0239 12.5L50.3839 13.34C50.1199 13.58 49.7799 13.768 49.3639 13.904C48.9479 14.04 48.5279 14.108 48.1039 14.108ZM47.9239 8.888C47.4199 8.888 47.0199 9.044 46.7239 9.356C46.4279 9.668 46.2479 10.084 46.1839 10.604H49.4599C49.4359 10.06 49.2919 9.64 49.0279 9.344C48.7639 9.04 48.3959 8.888 47.9239 8.888ZM54.0332 14.108C53.5212 14.108 53.0692 13.988 52.6772 13.748C52.2932 13.5 51.9932 13.148 51.7772 12.692C51.5612 12.236 51.4532 11.696 51.4532 11.072C51.4532 10.448 51.5612 9.912 51.7772 9.464C51.9932 9.008 52.2932 8.656 52.6772 8.408C53.0612 8.16 53.5132 8.036 54.0332 8.036C54.4732 8.036 54.8652 8.132 55.2092 8.324C55.5532 8.516 55.8092 8.776 55.9772 9.104V5.54H57.1892V14H56.0012V12.98C55.8332 13.332 55.5732 13.608 55.2212 13.808C54.8772 14.008 54.4812 14.108 54.0332 14.108ZM54.3452 13.172C54.8412 13.172 55.2412 12.992 55.5452 12.632C55.8492 12.272 56.0012 11.752 56.0012 11.072C56.0012 10.392 55.8492 9.876 55.5452 9.524C55.2412 9.164 54.8412 8.984 54.3452 8.984C53.8412 8.984 53.4372 9.164 53.1332 9.524C52.8292 9.876 52.6772 10.392 52.6772 11.072C52.6772 11.752 52.8292 12.272 53.1332 12.632C53.4372 12.992 53.8412 13.172 54.3452 13.172ZM58.7831 6.788V5.528H60.1991V6.788H58.7831ZM58.8911 14V8.144H60.1031V14H58.8911ZM64.305 14.108C63.569 14.108 63.021 13.92 62.661 13.544C62.301 13.168 62.121 12.624 62.121 11.912V9.08H60.981V8.144H62.121V6.38H63.333V8.144H65.145V9.08H63.333V11.816C63.333 12.24 63.421 12.56 63.597 12.776C63.781 12.992 64.077 13.1 64.485 13.1C64.613 13.1 64.737 13.088 64.857 13.064C64.977 13.032 65.097 12.996 65.217 12.956L65.409 13.868C65.289 13.94 65.121 13.996 64.905 14.036C64.697 14.084 64.497 14.108 64.305 14.108ZM73.2682 14.108C72.4122 14.108 71.6802 13.932 71.0722 13.58C70.4642 13.228 69.9962 12.728 69.6682 12.08C69.3482 11.424 69.1882 10.652 69.1882 9.764C69.1882 8.876 69.3482 8.108 69.6682 7.46C69.9962 6.812 70.4642 6.312 71.0722 5.96C71.6802 5.608 72.4122 5.432 73.2682 5.432C73.8442 5.432 74.3802 5.524 74.8762 5.708C75.3802 5.884 75.8002 6.14 76.1362 6.476L75.7042 7.472C75.3362 7.144 74.9562 6.908 74.5642 6.764C74.1802 6.612 73.7602 6.536 73.3042 6.536C72.3922 6.536 71.6962 6.816 71.2162 7.376C70.7362 7.936 70.4962 8.732 70.4962 9.764C70.4962 10.796 70.7362 11.596 71.2162 12.164C71.6962 12.724 72.3922 13.004 73.3042 13.004C73.7602 13.004 74.1802 12.932 74.5642 12.788C74.9562 12.636 75.3362 12.396 75.7042 12.068L76.1362 13.064C75.8002 13.392 75.3802 13.648 74.8762 13.832C74.3802 14.016 73.8442 14.108 73.2682 14.108ZM79.1263 14.108C78.7183 14.108 78.3543 14.028 78.0343 13.868C77.7143 13.708 77.4583 13.492 77.2663 13.22C77.0823 12.948 76.9903 12.64 76.9903 12.296C76.9903 11.864 77.0983 11.524 77.3143 11.276C77.5383 11.028 77.9023 10.848 78.4063 10.736C78.9183 10.624 79.6063 10.568 80.4703 10.568H80.8783V10.256C80.8783 9.8 80.7823 9.472 80.5903 9.272C80.3983 9.072 80.0823 8.972 79.6423 8.972C79.3063 8.972 78.9703 9.024 78.6343 9.128C78.2983 9.224 77.9543 9.38 77.6023 9.596L77.2303 8.744C77.5343 8.528 77.9143 8.356 78.3703 8.228C78.8263 8.1 79.2623 8.036 79.6783 8.036C80.4783 8.036 81.0703 8.228 81.4543 8.612C81.8383 8.988 82.0303 9.58 82.0303 10.388V14H80.8903V13.028C80.7463 13.364 80.5223 13.628 80.2183 13.82C79.9143 14.012 79.5503 14.108 79.1263 14.108ZM79.3663 13.244C79.7983 13.244 80.1583 13.092 80.4463 12.788C80.7343 12.484 80.8783 12.1 80.8783 11.636V11.312H80.4823C79.8983 11.312 79.4383 11.34 79.1023 11.396C78.7743 11.452 78.5383 11.548 78.3943 11.684C78.2583 11.812 78.1903 11.992 78.1903 12.224C78.1903 12.528 78.2943 12.776 78.5023 12.968C78.7103 13.152 78.9983 13.244 79.3663 13.244ZM83.6997 14V8.144H84.8757V9.188C85.1797 8.492 85.8117 8.104 86.7717 8.024L87.1677 8L87.2517 9.032L86.5197 9.104C85.4557 9.208 84.9237 9.756 84.9237 10.748V14H83.6997ZM90.3262 14.108C89.8142 14.108 89.3622 13.988 88.9702 13.748C88.5862 13.5 88.2862 13.148 88.0702 12.692C87.8542 12.236 87.7462 11.696 87.7462 11.072C87.7462 10.448 87.8542 9.912 88.0702 9.464C88.2862 9.008 88.5862 8.656 88.9702 8.408C89.3542 8.16 89.8062 8.036 90.3262 8.036C90.7662 8.036 91.1582 8.132 91.5022 8.324C91.8462 8.516 92.1022 8.776 92.2702 9.104V5.54H93.4822V14H92.2942V12.98C92.1262 13.332 91.8662 13.608 91.5142 13.808C91.1702 14.008 90.7742 14.108 90.3262 14.108ZM90.6382 13.172C91.1342 13.172 91.5342 12.992 91.8382 12.632C92.1422 12.272 92.2942 11.752 92.2942 11.072C92.2942 10.392 92.1422 9.876 91.8382 9.524C91.5342 9.164 91.1342 8.984 90.6382 8.984C90.1342 8.984 89.7302 9.164 89.4262 9.524C89.1222 9.876 88.9702 10.392 88.9702 11.072C88.9702 11.752 89.1222 12.272 89.4262 12.632C89.7302 12.992 90.1342 13.172 90.6382 13.172Z" fill="white"/>
<path d="M20 0H4C1.8 0 0 1.8 0 4V5C0 5.6 0.4 6 1 6H23C23.6 6 24 5.6 24 5V4C24 1.8 22.2 0 20 0Z" fill="white"/>
<path d="M23 8H1C0.4 8 0 8.4 0 9V14C0 16.2 1.8 18 4 18H20C22.2 18 24 16.2 24 14V9C24 8.4 23.6 8 23 8ZM11 15H5C4.4 15 4 14.6 4 14C4 13.4 4.4 13 5 13H11C11.6 13 12 13.4 12 14C12 14.6 11.6 15 11 15ZM19 12H17C16.4 12 16 11.6 16 11C16 10.4 16.4 10 17 10H19C19.6 10 20 10.4 20 11C20 11.6 19.6 12 19 12Z" fill="white"/>
</svg>
