<svg width="30" height="30" viewBox="0 0 30 30" fill="none" xmlns="http://www.w3.org/2000/svg">
<path d="M23.9999 15.2201C23.9999 14.6001 23.9399 13.9601 23.8399 13.3601H15.1799V16.9001H20.1399C19.9399 18.0401 19.2799 19.0401 18.2999 19.6801L21.2599 21.9801C22.9999 20.3601 23.9999 18.0001 23.9999 15.2201Z" fill="#4280EF"/>
<path d="M15.18 24.18C17.66 24.18 19.74 23.36 21.26 21.96L18.3 19.68C17.48 20.24 16.42 20.56 15.18 20.56C12.78 20.56 10.76 18.94 10.02 16.78L6.97998 19.12C8.53998 22.22 11.7 24.18 15.18 24.18Z" fill="#34A353"/>
<path d="M10.0199 16.76C9.63988 15.62 9.63988 14.38 10.0199 13.24L6.97988 10.88C5.67988 13.48 5.67988 16.54 6.97988 19.12L10.0199 16.76Z" fill="#F6B704"/>
<path d="M15.18 9.46005C16.48 9.44005 17.76 9.94005 18.7 10.8401L21.32 8.20005C19.66 6.64005 17.46 5.80005 15.18 5.82005C11.7 5.82005 8.53998 7.78005 6.97998 10.8801L10.02 13.24C10.76 11.0601 12.78 9.46005 15.18 9.46005Z" fill="#E54335"/>
</svg>
