<svg width="349" height="284" viewBox="0 0 349 284" fill="none" xmlns="http://www.w3.org/2000/svg">
<mask id="mask0_12_239" style="mask-type:alpha" maskUnits="userSpaceOnUse" x="0" y="-1" width="355" height="285">
<rect y="-1" width="355" height="285" fill="#D9D9D9"/>
</mask>
<g mask="url(#mask0_12_239)">
<path d="M173.246 256L172.954 249.421C172.923 249.405 172.893 249.389 172.862 249.373C169.725 247.728 166.129 250.706 167.131 254.102C168.074 257.297 168.708 260.742 170.434 263.539C171.453 265.163 172.826 266.538 174.449 267.56C176.072 268.582 177.905 269.227 179.812 269.445L183.798 271.884C184.344 268.837 184.224 265.707 183.444 262.711C182.664 259.715 181.244 256.924 179.281 254.529C178.166 253.197 176.888 252.01 175.476 250.997C174.522 253.512 173.246 256 173.246 256Z" fill="#F2F2F2"/>
<path d="M137.561 189.235C129.887 181.327 118.767 176.791 107.051 176.791L106.599 176.792C98.8824 176.795 91.3034 174.75 84.6372 170.865L83.9436 170.461L84.5023 169.886C87.527 166.758 90.0526 163.185 91.9907 159.29C90.6142 160.573 88.9725 161.537 87.1817 162.115C85.391 162.694 83.4949 162.871 81.6278 162.636C79.6566 162.401 77.7642 161.723 76.0926 160.653C74.4209 159.583 73.0134 158.149 71.9756 156.458C67.8809 149.818 63 140.397 63 133.22C63.0064 127.154 64.2774 121.156 66.732 115.607C69.1865 110.059 72.7709 105.083 77.2565 100.996C80.0963 98.4368 82.3646 95.3085 83.9134 91.8148C85.4623 88.321 86.257 84.5403 86.2456 80.719L86.2434 80.1752C86.2426 75.1442 86.8578 70.1321 88.0752 65.2505L88.1988 64.7576L88.7063 64.7753C91.9791 64.8866 95.2536 64.6124 98.4622 63.9585C95.4525 63.5896 92.5082 62.807 89.7129 61.6329L89.1669 61.4122L89.3522 60.8531C102.125 52.9499 130.956 57.0426 147.691 18.7795C161.26 -12.2467 209.138 46.3214 209.138 80.1752C209.138 83.6296 205.717 88.1945 208.278 90.4776C235.961 115.159 216.86 131.008 210.838 146.955C209.409 150.739 212.507 154.893 212.507 158.986C212.507 159.681 212.489 160.398 212.454 161.117L212.401 162.224L211.478 161.61C209.652 160.414 207.96 159.027 206.429 157.471C208.017 161.122 208.765 165.083 208.619 169.061C208.473 173.039 207.436 176.933 205.584 180.458C202.683 185.93 199.876 189.848 197.242 192.101C188.804 199.318 177.926 203.04 166.832 202.508C155.739 201.975 145.268 197.227 137.561 189.235Z" fill="#E6E6E6"/>
<path d="M183.908 271.559C184.096 271.559 184.278 271.491 184.421 271.367C184.563 271.243 184.656 271.073 184.683 270.886C184.716 270.652 187.979 247.135 185.049 215.879C182.342 187.014 173.651 145.438 147.616 111.292C147.554 111.21 147.476 111.141 147.387 111.089C147.298 111.037 147.2 111.003 147.098 110.989C146.995 110.976 146.892 110.982 146.792 111.008C146.692 111.035 146.599 111.08 146.517 111.143C146.435 111.205 146.366 111.283 146.314 111.372C146.262 111.461 146.229 111.559 146.215 111.662C146.201 111.764 146.208 111.867 146.234 111.967C146.261 112.066 146.306 112.16 146.369 112.242C172.179 146.093 180.8 187.364 183.487 216.025C186.401 247.099 183.163 270.433 183.13 270.665C183.115 270.776 183.123 270.889 183.155 270.997C183.187 271.105 183.241 271.204 183.315 271.289C183.389 271.374 183.48 271.442 183.582 271.488C183.684 271.535 183.795 271.559 183.908 271.559Z" fill="#3F3D56"/>
<path d="M162.661 159.456C162.827 159.456 162.988 159.404 163.123 159.307C163.257 159.209 163.356 159.072 163.408 158.915C163.459 158.757 163.459 158.588 163.408 158.43C163.357 158.273 163.257 158.136 163.123 158.039C163.029 157.97 153.504 151.112 139.266 145.902C126.103 141.086 106.087 136.72 85.4813 143.274C85.383 143.305 85.2919 143.355 85.213 143.421C85.1342 143.488 85.0692 143.569 85.0217 143.66C84.9743 143.752 84.9454 143.852 84.9367 143.954C84.9279 144.057 84.9395 144.16 84.9708 144.258C85.002 144.357 85.0523 144.448 85.1188 144.526C85.1853 144.605 85.2667 144.67 85.3583 144.717C85.4498 144.764 85.5499 144.793 85.6526 144.802C85.7553 144.81 85.8587 144.798 85.9568 144.767C106.14 138.348 125.793 142.641 138.726 147.373C152.762 152.509 162.108 159.239 162.201 159.306C162.335 159.404 162.496 159.456 162.661 159.456Z" fill="#3F3D56"/>
<path d="M198.548 70.1338C198.56 69.9688 198.519 69.8041 198.432 69.6635C198.345 69.5229 198.215 69.4135 198.062 69.3511C197.908 69.2886 197.739 69.2764 197.578 69.316C197.417 69.3556 197.273 69.4451 197.167 69.5717C197.091 69.6609 189.561 78.6605 183.335 92.4779C177.581 105.251 171.782 124.888 176.839 145.899C176.888 146.101 177.015 146.275 177.192 146.384C177.369 146.492 177.583 146.526 177.785 146.477C177.987 146.429 178.162 146.302 178.27 146.125C178.379 145.947 178.412 145.734 178.364 145.532C173.411 124.952 179.111 105.672 184.765 93.1213C190.902 79.5011 198.291 70.6695 198.365 70.5819C198.472 70.4556 198.536 70.2987 198.548 70.1338Z" fill="#3F3D56"/>
<path d="M197.487 110.538C198.149 115.872 201.847 120.27 207.225 120.27C209.808 120.27 212.285 119.245 214.111 117.42C215.938 115.595 216.964 113.119 216.964 110.538C216.964 105.163 212.581 101.303 207.225 100.806C201.543 100.279 196.638 103.69 197.487 110.538Z" fill="#2F2E41"/>
<path d="M211.736 267.272L215.444 267.272L217.208 252.977L211.735 252.978L211.736 267.272Z" fill="#FFB6B6"/>
<path d="M211.605 271.139L223.009 271.138V270.994C223.009 269.818 222.542 268.689 221.709 267.858C220.877 267.026 219.748 266.558 218.571 266.558L216.487 264.979L212.601 266.559L211.605 266.559L211.605 271.139Z" fill="#2F2E41"/>
<path d="M197.128 267.272L200.836 267.272L202.6 252.977L197.127 252.978L197.128 267.272Z" fill="#FFB6B6"/>
<path d="M196.998 271.139L208.402 271.138V270.994C208.402 269.818 207.934 268.689 207.101 267.858C206.269 267.026 205.14 266.558 203.963 266.558L201.88 264.979L197.993 266.559L196.998 266.559L196.998 271.139Z" fill="#2F2E41"/>
<path d="M224.497 177.741L227.119 186.725L224.03 224.771C224.03 224.771 225.621 227.15 224.497 227.15C223.373 227.15 221.933 227.678 222.84 229.098C223.748 230.519 220.645 235.619 220.645 235.619L216.257 262.709L210.665 262.627C210.665 262.627 207.822 261.044 209.418 259.444C211.013 257.843 212.137 257.843 210.639 256.346C209.141 254.849 209.141 255.3 209.141 254.138C209.141 252.977 207.64 238.786 211.199 233.342L210.127 211.148L207.6 232.918L202.399 261.961L197.012 261.916C197.012 261.916 194.524 259.52 194.529 257.746C194.533 255.972 196.066 255.824 194.925 254.775C193.784 253.726 193.784 237.607 197.155 228.647C197.155 228.647 199.062 223.641 197.151 221.926C195.239 220.211 197.148 218.248 197.148 218.248C197.148 218.248 200.175 217.154 197.146 214.003C194.116 210.853 197.129 188.57 197.129 188.57C197.129 188.57 193.817 179.575 197.172 176.038C200.526 172.501 224.497 177.741 224.497 177.741Z" fill="#2F2E41"/>
<path d="M177.8 193.219L182.478 181.921L186.164 183.968L183.938 195.46C184.161 196.188 184.176 196.964 183.982 197.7C183.788 198.436 183.392 199.104 182.839 199.628C182.286 200.152 181.598 200.511 180.852 200.665C180.106 200.82 179.332 200.763 178.616 200.502C177.9 200.241 177.272 199.785 176.801 199.186C176.33 198.588 176.036 197.869 175.951 197.113C175.867 196.356 175.995 195.591 176.321 194.903C176.648 194.215 177.16 193.632 177.8 193.219Z" fill="#FFB6B6"/>
<path d="M256.296 103.882L249.179 113.827L246.053 110.999L250.826 100.31C250.774 99.5501 250.935 98.791 251.291 98.1178C251.647 97.4446 252.184 96.884 252.841 96.499C253.499 96.114 254.25 95.9199 255.012 95.9384C255.774 95.957 256.515 96.1875 257.153 96.604C257.791 97.0206 258.299 97.6067 258.622 98.2964C258.945 98.9861 259.069 99.7521 258.98 100.508C258.891 101.264 258.592 101.981 258.118 102.577C257.644 103.173 257.013 103.625 256.296 103.882Z" fill="#FFB6B6"/>
<path d="M225.203 178.662C229.82 185.819 206.614 194.9 197.71 191.254C196.151 190.616 190.787 188.507 194.453 185.584C198.119 182.66 194.028 182.249 193.931 180.346C193.867 179.073 194.853 176.282 193.824 176.402C192.796 176.521 191.592 174.762 193.832 174.005C196.072 173.247 193.856 172.557 193.875 171.838C194.09 163.994 200.112 151.518 200.112 151.518L189.261 179.238C189.261 179.238 189.341 184.034 187.957 182.568C186.573 181.103 186.674 185.846 186.674 185.846C186.674 185.846 184.616 187.281 185.799 188.08C186.983 188.879 184.526 191.334 184.526 191.334L178.792 190.925C178.792 190.925 178.882 186.669 179.861 185.727C180.84 184.786 180.359 183.305 180.359 183.305C180.359 183.305 182.908 181.05 181.199 179.22C179.002 176.865 187.014 137.099 189.779 137.493C190.17 135.591 191.079 133.835 192.406 132.418C193.734 131.001 195.427 129.978 197.3 129.463L203.492 127.759L204.591 123.4H213.31L214.829 126.264L221.458 129.254C222.706 127.493 223.64 125.638 228.752 125.037C228.752 125.037 242.529 112.51 241.857 111.532C241.184 110.553 243.32 108.263 243.32 108.263C243.32 108.263 245.144 107.667 244.114 107.348C243.085 107.03 245.03 106.293 245.03 106.293C245.03 106.293 246.832 105.82 245.982 105.197C245.133 104.574 248.818 104.165 248.818 104.165L253.6 108.064L252.634 109.702C252.634 109.702 253.223 111.932 252.454 111.118C251.685 110.304 251.54 112.667 251.54 112.667C251.54 112.667 251.147 115.254 248.818 116.033C246.489 116.813 244.723 124.218 244.723 124.218C239.231 131.355 232.748 136.923 225.067 140.588C228.061 144.022 225.203 178.662 225.203 178.662Z" fill="#0065FF"/>
<path d="M208.302 120.848C213.071 120.848 216.937 116.984 216.937 112.218C216.937 107.452 213.071 103.588 208.302 103.588C203.532 103.588 199.666 107.452 199.666 112.218C199.666 116.984 203.532 120.848 208.302 120.848Z" fill="#FFB6B6"/>
<path d="M199.36 113.158C199.633 115.034 201.233 117.65 200.858 117.65C200.483 117.65 197.82 109.919 200.483 109.415C202.415 109.05 202.847 109.37 204.652 108.588L204.397 108.828C205.592 109.696 207.255 109.161 208.619 108.596C209.986 108.034 211.645 107.499 212.844 108.363C213.596 108.906 213.915 109.849 214.383 110.65C214.851 111.455 215.716 112.215 216.608 111.968C217.323 111.77 217.735 110.969 217.731 110.228C217.728 109.486 216.762 108.781 217.087 108.116C218.051 106.146 217.184 104.803 215.083 103.875C214.319 103.759 213.555 103.641 212.791 103.52C213.192 102.966 213.677 102.478 214.229 102.075C213.996 101.477 213.592 100.96 213.068 100.589C212.458 100.226 211.701 100.252 210.993 100.29C209.413 100.372 207.833 100.454 206.255 100.537C205.087 100.597 203.877 100.668 202.832 101.203C201.528 101.873 200.674 103.179 200.053 104.508C198.659 107.495 198.88 109.898 199.36 113.158Z" fill="#2F2E41"/>
<path d="M163.436 272.111L248.366 272.226C248.484 272.226 248.597 272.179 248.681 272.095C248.765 272.012 248.812 271.899 248.812 271.78C248.812 271.662 248.765 271.549 248.681 271.465C248.597 271.382 248.484 271.335 248.366 271.335L163.436 271.22C163.318 271.22 163.205 271.267 163.121 271.35C163.037 271.434 162.99 271.547 162.99 271.665C162.99 271.783 163.037 271.897 163.121 271.98C163.205 272.064 163.318 272.111 163.436 272.111Z" fill="#CACACA"/>
<path d="M132.72 233.261C132.876 232.186 131.749 231.132 130.202 230.907C128.655 230.682 127.275 231.371 127.118 232.447C126.961 233.522 128.088 234.576 129.635 234.801C131.182 235.026 132.563 234.336 132.72 233.261Z" fill="#E6E6E6"/>
<path d="M151.137 231.465C151.293 230.39 150.166 229.336 148.619 229.111C147.072 228.886 145.692 229.575 145.535 230.651C145.378 231.726 146.505 232.78 148.052 233.005C149.599 233.23 150.98 232.541 151.137 231.465Z" fill="#3F3D56"/>
<path d="M127.676 218.361C127.833 217.285 126.706 216.231 125.159 216.006C123.612 215.781 122.231 216.471 122.075 217.546C121.918 218.621 123.045 219.675 124.592 219.9C126.139 220.125 127.52 219.436 127.676 218.361Z" fill="#FF6584"/>
<path d="M119.674 212.257C119.681 211.27 119.13 210.465 118.443 210.46C117.756 210.455 117.193 211.251 117.185 212.238C117.178 213.226 117.729 214.03 118.416 214.035C119.103 214.04 119.666 213.244 119.674 212.257Z" fill="#E6E6E6"/>
<path d="M116.96 200.889C116.967 199.902 116.416 199.097 115.729 199.092C115.042 199.087 114.479 199.883 114.471 200.87C114.464 201.857 115.015 202.662 115.702 202.667C116.389 202.672 116.952 201.876 116.96 200.889Z" fill="#3F3D56"/>
<path d="M138.064 220.896C138.071 219.909 137.52 219.104 136.833 219.099C136.146 219.094 135.583 219.89 135.575 220.877C135.568 221.865 136.119 222.669 136.806 222.674C137.493 222.68 138.056 221.884 138.064 220.896Z" fill="#E6E6E6"/>
<path d="M129.164 225.337C129.172 224.35 128.62 223.545 127.933 223.54C127.246 223.535 126.683 224.331 126.675 225.318C126.668 226.305 127.219 227.11 127.906 227.115C128.593 227.12 129.157 226.324 129.164 225.337Z" fill="#FF6584"/>
<path d="M141.553 233.545C141.56 232.557 141.009 231.753 140.322 231.748C139.635 231.743 139.072 232.539 139.064 233.526C139.057 234.513 139.608 235.318 140.295 235.323C140.982 235.328 141.545 234.532 141.553 233.545Z" fill="#3F3D56"/>
<path d="M274.3 175.618C274.456 174.542 273.329 173.488 271.782 173.263C270.235 173.038 268.854 173.728 268.698 174.803C268.541 175.878 269.668 176.933 271.215 177.157C272.762 177.382 274.143 176.693 274.3 175.618Z" fill="#E6E6E6"/>
<path d="M292.717 173.822C292.873 172.746 291.746 171.692 290.199 171.467C288.652 171.242 287.271 171.932 287.115 173.007C286.958 174.083 288.085 175.137 289.632 175.362C291.179 175.587 292.56 174.897 292.717 173.822Z" fill="#3F3D56"/>
<path d="M269.256 160.717C269.412 159.642 268.285 158.588 266.738 158.363C265.192 158.138 263.811 158.827 263.654 159.903C263.498 160.978 264.625 162.032 266.171 162.257C267.718 162.482 269.099 161.792 269.256 160.717Z" fill="#FF6584"/>
<path d="M261.253 154.613C261.261 153.626 260.71 152.822 260.023 152.817C259.335 152.811 258.772 153.607 258.765 154.595C258.757 155.582 259.308 156.386 259.996 156.392C260.683 156.397 261.246 155.601 261.253 154.613Z" fill="#E6E6E6"/>
<path d="M258.54 143.245C258.547 142.258 257.996 141.453 257.309 141.448C256.622 141.443 256.059 142.239 256.051 143.226C256.044 144.214 256.595 145.018 257.282 145.023C257.969 145.028 258.532 144.232 258.54 143.245Z" fill="#3F3D56"/>
<path d="M279.644 163.253C279.651 162.265 279.1 161.461 278.413 161.456C277.726 161.451 277.163 162.247 277.155 163.234C277.148 164.221 277.699 165.026 278.386 165.031C279.073 165.036 279.636 164.24 279.644 163.253Z" fill="#E6E6E6"/>
<path d="M270.744 167.693C270.751 166.706 270.2 165.902 269.513 165.896C268.826 165.891 268.263 166.687 268.255 167.675C268.248 168.662 268.799 169.466 269.486 169.472C270.173 169.477 270.736 168.681 270.744 167.693Z" fill="#FF6584"/>
<path d="M283.133 175.901C283.14 174.914 282.589 174.109 281.902 174.104C281.215 174.099 280.651 174.895 280.644 175.882C280.636 176.87 281.187 177.674 281.875 177.679C282.562 177.685 283.125 176.888 283.133 175.901Z" fill="#3F3D56"/>
<path d="M205.757 68.9397C205.913 67.8643 204.786 66.8102 203.239 66.5853C201.693 66.3604 200.312 67.0498 200.155 68.1252C199.999 69.2006 201.126 70.2547 202.672 70.4796C204.219 70.7046 205.6 70.0151 205.757 68.9397Z" fill="white"/>
<path d="M224.174 67.1437C224.331 66.0683 223.204 65.0142 221.657 64.7893C220.11 64.5644 218.729 65.2538 218.572 66.3292C218.416 67.4046 219.543 68.4587 221.09 68.6836C222.637 68.9085 224.017 68.2191 224.174 67.1437Z" fill="#3F3D56"/>
<path d="M200.714 54.0391C200.87 52.9638 199.743 51.9097 198.196 51.6847C196.65 51.4598 195.269 52.1492 195.112 53.2246C194.956 54.3 196.083 55.3541 197.629 55.5791C199.176 55.804 200.557 55.1145 200.714 54.0391Z" fill="#FF6584"/>
<path d="M192.711 47.9356C192.719 46.9484 192.168 46.1438 191.48 46.1387C190.793 46.1335 190.23 46.9296 190.223 47.9168C190.215 48.9041 190.766 49.7086 191.453 49.7138C192.141 49.719 192.704 48.9229 192.711 47.9356Z" fill="#E6E6E6"/>
<path d="M211.101 56.5749C211.109 55.5876 210.557 54.7831 209.87 54.7779C209.183 54.7727 208.62 55.5688 208.612 56.5561C208.605 57.5433 209.156 58.3478 209.843 58.353C210.53 58.3582 211.094 57.5621 211.101 56.5749Z" fill="#E6E6E6"/>
<path d="M202.201 61.0157C202.208 60.0284 201.657 59.2239 200.97 59.2187C200.283 59.2135 199.72 60.0096 199.712 60.9968C199.705 61.9841 200.256 62.7886 200.943 62.7938C201.63 62.799 202.193 62.0029 202.201 61.0157Z" fill="#FF6584"/>
<path d="M214.59 69.2232C214.598 68.236 214.047 67.4315 213.36 67.4263C212.672 67.4211 212.109 68.2172 212.102 69.2044C212.094 70.1917 212.645 70.9962 213.332 71.0014C214.02 71.0066 214.583 70.2105 214.59 69.2232Z" fill="#3F3D56"/>
</g>
</svg>
