<svg width="42" height="25" viewBox="0 0 42 25" fill="none" xmlns="http://www.w3.org/2000/svg">
<path d="M41.2205 12.3662C41.2205 19.1709 35.7244 24.7324 28.8542 24.7324C22.0496 24.7324 16.488 19.1709 16.488 12.3662C16.488 5.56152 21.9841 0 28.7888 0C35.7244 0 41.2205 5.56152 41.2205 12.3662Z" fill="#FFB600"/>
<path d="M28.8542 0C35.6589 0 41.2205 5.56152 41.2205 12.3662C41.2205 19.1709 35.7244 24.7324 28.8542 24.7324C22.0496 24.7324 16.488 19.1709 16.488 12.3662" fill="#F7981D"/>
<path d="M28.8545 0C35.6592 0 41.2207 5.56152 41.2207 12.3662C41.2207 19.1709 35.7246 24.7324 28.8545 24.7324" fill="#FF8500"/>
<path d="M12.2354 0C5.49609 0.0654297 0 5.56152 0 12.3662C0 19.1709 5.49609 24.7324 12.3662 24.7324C15.5723 24.7324 18.4512 23.4893 20.6758 21.5264C21.1338 21.1338 21.5264 20.6758 21.9189 20.2178H19.3672C19.04 19.8252 18.7129 19.3672 18.4512 18.9746H22.835C23.0967 18.582 23.3584 18.124 23.5547 17.666H17.7314C17.5352 17.2734 17.3389 16.8154 17.208 16.3574H24.0127C24.4053 15.1143 24.667 13.8057 24.667 12.4316C24.667 11.5156 24.5361 10.665 24.4053 9.81445H16.8154C16.8809 9.35644 17.0117 8.96387 17.1426 8.50586H23.9473C23.8164 8.04785 23.6201 7.58984 23.4238 7.19727H17.666C17.8623 6.73926 18.124 6.34668 18.3857 5.88867H22.7695C22.5078 5.43066 22.1807 4.97266 21.7881 4.58008H19.3672C19.7598 4.12207 20.1523 3.72949 20.6104 3.33691C18.4512 1.30859 15.5068 0.130859 12.3008 0.130859C12.3008 -1.26747e-07 12.3008 0 12.2354 0Z" fill="#FF5050"/>
<path d="M0 12.3662C0 19.1709 5.49609 24.7324 12.3662 24.7324C15.5723 24.7324 18.4512 23.4893 20.6758 21.5264C21.1338 21.1338 21.5264 20.6758 21.9189 20.2178H19.3672C19.04 19.8252 18.7129 19.3672 18.4512 18.9746H22.835C23.0967 18.582 23.3584 18.124 23.5547 17.666H17.7314C17.5352 17.2734 17.3389 16.8154 17.208 16.3574H24.0127C24.4053 15.1143 24.667 13.8057 24.667 12.4316C24.667 11.5156 24.5361 10.665 24.4053 9.81445H16.8154C16.8809 9.35645 17.0117 8.96387 17.1426 8.50586H23.9473C23.8164 8.04785 23.6201 7.58984 23.4238 7.19727H17.666C17.8623 6.73926 18.124 6.34668 18.3857 5.88867H22.7695C22.5078 5.43066 22.1807 4.97266 21.7881 4.58008H19.3672C19.7598 4.12207 20.1523 3.72949 20.6104 3.33691C18.4512 1.30859 15.5068 0.130859 12.3008 0.130859H12.2354" fill="#E52836"/>
<path d="M12.366 24.7324C15.572 24.7324 18.4509 23.4893 20.6755 21.5264C21.1335 21.1338 21.5261 20.6758 21.9187 20.2178H19.3669C19.0398 19.8252 18.7126 19.3672 18.4509 18.9746H22.8347C23.0964 18.582 23.3582 18.124 23.5544 17.666H17.7312C17.5349 17.2734 17.3386 16.8154 17.2078 16.3574H24.0125C24.405 15.1143 24.6667 13.8057 24.6667 12.4316C24.6667 11.5156 24.5359 10.665 24.405 9.81445H16.8152C16.8806 9.35645 17.0115 8.96387 17.1423 8.50586H23.947C23.8162 8.04785 23.6199 7.58984 23.4236 7.19727H17.6658C17.8621 6.73926 18.1238 6.34668 18.3855 5.88867H22.7693C22.5076 5.43066 22.1804 4.97266 21.7878 4.58008H19.3669C19.7595 4.12207 20.1521 3.72949 20.6101 3.33691C18.4509 1.30859 15.5066 0.130859 12.3005 0.130859H12.2351" fill="#CB2026"/>
<path d="M16.7505 15.507L16.9468 14.3947C16.8813 14.3947 16.7505 14.4601 16.6196 14.4601C16.1616 14.4601 16.0962 14.1984 16.1616 14.0675L16.5542 11.7775H17.2739L17.4702 10.5343H16.8159L16.9468 9.74915H15.6382C15.6382 9.74915 14.853 14.0675 14.853 14.5909C14.853 15.3761 15.311 15.7032 15.8999 15.7032C16.2925 15.7032 16.6196 15.5724 16.7505 15.507Z" fill="white"/>
<path d="M17.2083 13.4131C17.2083 15.2451 18.4514 15.7031 19.4983 15.7031C20.4797 15.7031 20.8723 15.5068 20.8723 15.5068L21.134 14.2637C21.134 14.2637 20.4143 14.5908 19.76 14.5908C18.3206 14.5908 18.5823 13.5439 18.5823 13.5439H21.2649C21.2649 13.5439 21.4612 12.6933 21.4612 12.3662C21.4612 11.5156 21.0032 10.4687 19.5637 10.4687C18.1897 10.3379 17.2083 11.7773 17.2083 13.4131ZM19.4983 11.5156C20.218 11.5156 20.0872 12.3662 20.0872 12.4316H18.6477C18.6477 12.3662 18.7786 11.5156 19.4983 11.5156Z" fill="white"/>
<path d="M27.8076 15.5068L28.0693 14.0674C28.0693 14.0674 27.415 14.3945 26.957 14.3945C26.041 14.3945 25.6484 13.6748 25.6484 12.8896C25.6484 11.3193 26.4336 10.4688 27.3496 10.4688C28.0039 10.4688 28.5273 10.8613 28.5273 10.8613L28.7236 9.4873C28.7236 9.4873 27.9385 9.16016 27.2187 9.16016C25.7139 9.16016 24.209 10.4688 24.209 12.9551C24.209 14.5908 24.9941 15.7031 26.5645 15.7031C27.0879 15.7031 27.8076 15.5068 27.8076 15.5068Z" fill="white"/>
<path d="M9.55298 10.3378C8.63696 10.3378 7.98267 10.5995 7.98267 10.5995L7.78638 11.7118C7.78638 11.7118 8.37524 11.4501 9.22583 11.4501C9.68384 11.4501 10.0764 11.5155 10.0764 11.9081C10.0764 12.1698 10.011 12.2352 10.011 12.2352C10.011 12.2352 9.61841 12.2352 9.42212 12.2352C8.30981 12.2352 7.06665 12.6932 7.06665 14.1981C7.06665 15.3759 7.85181 15.6376 8.30981 15.6376C9.22583 15.6376 9.61841 15.0487 9.68384 15.0487L9.61841 15.5721H10.7961L11.3196 11.9735C11.3196 10.4032 10.011 10.3378 9.55298 10.3378ZM9.8147 13.2821C9.8147 13.4784 9.68384 14.5253 8.89868 14.5253C8.5061 14.5253 8.37524 14.1981 8.37524 14.0018C8.37524 13.6747 8.57153 13.2167 9.55298 13.2167C9.74927 13.2821 9.8147 13.2821 9.8147 13.2821Z" fill="white"/>
<path d="M12.5627 15.6377C12.8899 15.6377 14.5256 15.7031 14.5256 13.9365C14.5256 12.3008 12.9553 12.6279 12.9553 11.9736C12.9553 11.6465 13.217 11.5156 13.675 11.5156C13.8713 11.5156 14.5911 11.5811 14.5911 11.5811L14.7874 10.4033C14.7874 10.4033 14.3293 10.2725 13.5442 10.2725C12.5627 10.2725 11.5813 10.665 11.5813 11.9736C11.5813 13.4785 13.217 13.3477 13.217 13.9365C13.217 14.3291 12.759 14.3945 12.4319 14.3945C11.843 14.3945 11.2542 14.1982 11.2542 14.1982L11.0579 15.376C11.1233 15.5068 11.4504 15.6377 12.5627 15.6377Z" fill="white"/>
<path d="M38.6692 9.29102L38.4075 11.0576C38.4075 11.0576 37.884 10.4033 37.1643 10.4033C35.9866 10.4033 34.9397 11.8428 34.9397 13.5439C34.9397 14.5908 35.4631 15.7031 36.5754 15.7031C37.3606 15.7031 37.8186 15.1797 37.8186 15.1797L37.7532 15.6377H39.0618L40.0432 9.35645L38.6692 9.29102ZM38.0803 12.7588C38.0803 13.4785 37.7532 14.3945 37.0334 14.3945C36.5754 14.3945 36.3137 14.002 36.3137 13.3477C36.3137 12.3008 36.7717 11.6465 37.3606 11.6465C37.8186 11.6465 38.0803 11.9736 38.0803 12.7588Z" fill="white"/>
<path d="M2.42114 15.5723L3.2063 10.8613L3.33716 15.5723H4.25317L5.95435 10.8613L5.23462 15.5723H6.60864L7.65552 9.29102H5.49634L4.18774 13.1514L4.12231 9.29102H2.22485L1.17798 15.5723H2.42114Z" fill="white"/>
<path d="M22.7041 15.5723C23.0967 13.4131 23.1621 11.6465 24.0781 11.9736C24.209 11.123 24.4053 10.7959 24.5361 10.4688C24.5361 10.4688 24.4707 10.4688 24.2744 10.4688C23.6855 10.4688 23.2275 11.2539 23.2275 11.2539L23.3584 10.5342H22.1152L21.2646 15.6377H22.7041V15.5723Z" fill="white"/>
<path d="M30.8176 10.3378C29.9016 10.3378 29.2473 10.5995 29.2473 10.5995L29.051 11.7118C29.051 11.7118 29.6399 11.4501 30.4905 11.4501C30.9485 11.4501 31.3411 11.5155 31.3411 11.9081C31.3411 12.1698 31.2756 12.2352 31.2756 12.2352C31.2756 12.2352 30.8831 12.2352 30.6868 12.2352C29.5745 12.2352 28.3313 12.6932 28.3313 14.1981C28.3313 15.3759 29.1165 15.6376 29.5745 15.6376C30.4905 15.6376 30.8831 15.0487 30.9485 15.0487L30.8831 15.5721H32.0608L32.5842 11.9735C32.6497 10.4032 31.2756 10.3378 30.8176 10.3378ZM31.1448 13.2821C31.1448 13.4784 31.0139 14.5253 30.2288 14.5253C29.8362 14.5253 29.7053 14.1981 29.7053 14.0018C29.7053 13.6747 29.9016 13.2167 30.8831 13.2167C31.0793 13.2821 31.0793 13.2821 31.1448 13.2821Z" fill="white"/>
<path d="M33.6965 15.5723C34.0891 13.4131 34.1545 11.6465 35.0706 11.9736C35.2014 11.123 35.3977 10.7959 35.5286 10.4688C35.5286 10.4688 35.4631 10.4688 35.2668 10.4688C34.678 10.4688 34.22 11.2539 34.22 11.2539L34.3508 10.5342H33.1077L32.2571 15.6377H33.6965V15.5723Z" fill="white"/>
<path d="M14.7217 14.5909C14.7217 15.3761 15.1797 15.7032 15.7686 15.7032C16.2266 15.7032 16.6191 15.5724 16.75 15.507L16.9463 14.3947C16.8809 14.3947 16.75 14.4601 16.6191 14.4601C16.1611 14.4601 16.0957 14.1984 16.1611 14.0675L16.5537 11.7775H17.2734L17.4697 10.5343H16.8154L16.9463 9.74915" fill="#DCE5E5"/>
<path d="M17.8625 13.4131C17.8625 15.2451 18.4514 15.7031 19.4983 15.7031C20.4797 15.7031 20.8723 15.5068 20.8723 15.5068L21.134 14.2637C21.134 14.2637 20.4143 14.5908 19.76 14.5908C18.3206 14.5908 18.5823 13.5439 18.5823 13.5439H21.2649C21.2649 13.5439 21.4612 12.6933 21.4612 12.3662C21.4612 11.5156 21.0032 10.4687 19.5637 10.4687C18.1897 10.3379 17.8625 11.7773 17.8625 13.4131ZM19.4983 11.5156C20.218 11.5156 20.3489 12.3662 20.3489 12.4316H18.6477C18.6477 12.3662 18.7786 11.5156 19.4983 11.5156Z" fill="#DCE5E5"/>
<path d="M27.8076 15.5068L28.0693 14.0674C28.0693 14.0674 27.415 14.3945 26.957 14.3945C26.041 14.3945 25.6484 13.6748 25.6484 12.8896C25.6484 11.3193 26.4336 10.4688 27.3496 10.4688C28.0039 10.4688 28.5273 10.8613 28.5273 10.8613L28.7236 9.4873C28.7236 9.4873 27.9385 9.16016 27.2187 9.16016C25.7139 9.16016 24.8633 10.4688 24.8633 12.9551C24.8633 14.5908 24.9941 15.7031 26.5645 15.7031C27.0879 15.7031 27.8076 15.5068 27.8076 15.5068Z" fill="#DCE5E5"/>
<path d="M7.78638 11.7773C7.78638 11.7773 8.37524 11.5156 9.22583 11.5156C9.68384 11.5156 10.0764 11.5811 10.0764 11.9736C10.0764 12.2354 10.011 12.3008 10.011 12.3008C10.011 12.3008 9.61841 12.3008 9.42212 12.3008C8.30981 12.3008 7.06665 12.7588 7.06665 14.2637C7.06665 15.4414 7.85181 15.7031 8.30981 15.7031C9.22583 15.7031 9.61841 15.1143 9.68384 15.1143L9.61841 15.6377H10.7961L11.3196 12.0391C11.3196 10.5342 10.011 10.4688 9.48755 10.4688M10.469 13.2822C10.469 13.4785 9.68384 14.5254 8.89868 14.5254C8.5061 14.5254 8.37524 14.1982 8.37524 14.002C8.37524 13.6748 8.57153 13.2168 9.55298 13.2168C9.74927 13.2822 10.469 13.2822 10.469 13.2822Z" fill="#DCE5E5"/>
<path d="M11.123 15.5068C11.123 15.5068 11.5156 15.6377 12.6279 15.6377C12.9551 15.6377 14.5908 15.7031 14.5908 13.9365C14.5908 12.3008 13.0205 12.6279 13.0205 11.9736C13.0205 11.6465 13.2822 11.5156 13.7402 11.5156C13.9365 11.5156 14.6562 11.5811 14.6562 11.5811L14.8525 10.4033C14.8525 10.4033 14.3945 10.2725 13.6094 10.2725C12.6279 10.2725 12.3008 10.665 12.3008 11.9736C12.3008 13.4785 13.2822 13.3477 13.2822 13.9365C13.2822 14.3291 12.8242 14.3945 12.4971 14.3945" fill="#DCE5E5"/>
<path d="M38.4076 11.0575C38.4076 11.0575 37.8841 10.4032 37.1644 10.4032C35.9867 10.4032 35.5941 11.8427 35.5941 13.5438C35.5941 14.5907 35.4632 15.703 36.5755 15.703C37.3607 15.703 37.8187 15.1796 37.8187 15.1796L37.7533 15.6376H39.0619L40.0433 9.35632M38.3421 12.7587C38.3421 13.4784 37.7533 14.3944 37.0336 14.3944C36.5755 14.3944 36.3138 14.0018 36.3138 13.3475C36.3138 12.3007 36.7718 11.6464 37.3607 11.6464C37.8187 11.6464 38.3421 11.9735 38.3421 12.7587Z" fill="#DCE5E5"/>
<path d="M2.42114 15.5723L3.2063 10.8613L3.33716 15.5723H4.25317L5.95435 10.8613L5.23462 15.5723H6.60864L7.65552 9.29102H6.01977L4.18774 13.1514L4.12231 9.29102H3.40259L1.17798 15.5723H2.42114Z" fill="#DCE5E5"/>
<path d="M21.3303 15.5723H22.7043C23.0969 13.4131 23.1624 11.6465 24.0784 11.9736C24.2092 11.123 24.4055 10.7959 24.5364 10.4688C24.5364 10.4688 24.4709 10.4688 24.2747 10.4688C23.6858 10.4688 23.2278 11.2539 23.2278 11.2539L23.3586 10.5342" fill="#DCE5E5"/>
<path d="M29.051 11.7773C29.051 11.7773 29.6399 11.5156 30.4905 11.5156C30.9485 11.5156 31.3411 11.5811 31.3411 11.9736C31.3411 12.2354 31.2756 12.3008 31.2756 12.3008C31.2756 12.3008 30.8831 12.3008 30.6868 12.3008C29.5745 12.3008 28.3313 12.7588 28.3313 14.2637C28.3313 15.4414 29.1165 15.7031 29.5745 15.7031C30.4905 15.7031 30.8831 15.1143 30.9485 15.1143L30.8831 15.6377H32.0608L32.5842 12.0391C32.5842 10.5342 31.2756 10.4688 30.7522 10.4688M31.7336 13.2822C31.7336 13.4785 30.9485 14.5254 30.1633 14.5254C29.7708 14.5254 29.6399 14.1982 29.6399 14.002C29.6399 13.6748 29.8362 13.2168 30.8176 13.2168C31.0793 13.2822 31.7336 13.2822 31.7336 13.2822Z" fill="#DCE5E5"/>
<path d="M32.3225 15.5723H33.6965C34.0891 13.4131 34.1545 11.6465 35.0706 11.9736C35.2014 11.123 35.3977 10.7959 35.5286 10.4688C35.5286 10.4688 35.4631 10.4688 35.2668 10.4688C34.678 10.4688 34.22 11.2539 34.22 11.2539L34.3508 10.5342" fill="#DCE5E5"/>
</svg>
