<svg width="65" height="16" viewBox="0 0 65 16" fill="none" xmlns="http://www.w3.org/2000/svg">
<path d="M1.256 12.128C0.925333 12.128 0.669333 12.0373 0.488 11.856C0.317333 11.664 0.232 11.4027 0.232 11.072V1.76C0.232 1.41867 0.322667 1.16267 0.504 0.992C0.685333 0.810666 0.941333 0.719999 1.272 0.719999H5.128C6.36533 0.719999 7.32 1.02933 7.992 1.648C8.664 2.26667 9 3.13067 9 4.24C9 5.34933 8.664 6.21867 7.992 6.848C7.32 7.46667 6.36533 7.776 5.128 7.776H2.28V11.072C2.28 11.4027 2.19467 11.664 2.024 11.856C1.85333 12.0373 1.59733 12.128 1.256 12.128ZM2.28 6.16H4.808C5.53333 6.16 6.08267 6 6.456 5.68C6.82933 5.34933 7.016 4.86933 7.016 4.24C7.016 3.61067 6.82933 3.136 6.456 2.816C6.08267 2.496 5.53333 2.336 4.808 2.336H2.28V6.16ZM12.6785 12.16C12.1132 12.16 11.6065 12.0533 11.1585 11.84C10.7212 11.616 10.3745 11.3173 10.1185 10.944C9.87317 10.5707 9.7505 10.1493 9.7505 9.68C9.7505 9.104 9.89983 8.65067 10.1985 8.32C10.4972 7.97867 10.9825 7.73333 11.6545 7.584C12.3265 7.43467 13.2278 7.36 14.3585 7.36H15.1585V8.512H14.3745C13.7132 8.512 13.1852 8.544 12.7905 8.608C12.3958 8.672 12.1132 8.784 11.9425 8.944C11.7825 9.09333 11.7025 9.30667 11.7025 9.584C11.7025 9.936 11.8252 10.224 12.0705 10.448C12.3158 10.672 12.6572 10.784 13.0945 10.784C13.4465 10.784 13.7558 10.704 14.0225 10.544C14.2998 10.3733 14.5185 10.144 14.6785 9.856C14.8385 9.568 14.9185 9.23733 14.9185 8.864V7.024C14.9185 6.49067 14.8012 6.10667 14.5665 5.872C14.3318 5.63733 13.9372 5.52 13.3825 5.52C13.0732 5.52 12.7372 5.55733 12.3745 5.632C12.0225 5.70667 11.6492 5.83467 11.2545 6.016C11.0518 6.112 10.8705 6.13867 10.7105 6.096C10.5612 6.05333 10.4438 5.968 10.3585 5.84C10.2732 5.70133 10.2305 5.552 10.2305 5.392C10.2305 5.232 10.2732 5.07733 10.3585 4.928C10.4438 4.768 10.5878 4.65067 10.7905 4.576C11.2812 4.37333 11.7505 4.22933 12.1985 4.144C12.6572 4.05867 13.0732 4.016 13.4465 4.016C14.2145 4.016 14.8438 4.13333 15.3345 4.368C15.8358 4.60267 16.2092 4.96 16.4545 5.44C16.6998 5.90933 16.8225 6.51733 16.8225 7.264V11.104C16.8225 11.4347 16.7425 11.6907 16.5825 11.872C16.4225 12.0427 16.1932 12.128 15.8945 12.128C15.5958 12.128 15.3612 12.0427 15.1905 11.872C15.0305 11.6907 14.9505 11.4347 14.9505 11.104V10.336H15.0785C15.0038 10.7093 14.8545 11.0347 14.6305 11.312C14.4172 11.5787 14.1452 11.7867 13.8145 11.936C13.4838 12.0853 13.1052 12.16 12.6785 12.16ZM20.7584 15.008C20.5237 15.008 20.3317 14.944 20.1824 14.816C20.033 14.6987 19.9424 14.5387 19.9104 14.336C19.889 14.1333 19.9264 13.92 20.0224 13.696L21.1104 11.28V12.112L18.1984 5.376C18.1024 5.14133 18.0704 4.92267 18.1024 4.72C18.1344 4.51733 18.2304 4.35733 18.3904 4.24C18.561 4.112 18.7904 4.048 19.0784 4.048C19.3237 4.048 19.521 4.10667 19.6704 4.224C19.8197 4.33067 19.953 4.53867 20.0704 4.848L22.2304 10.24H21.7504L23.9584 4.832C24.0757 4.53333 24.2144 4.33067 24.3744 4.224C24.5344 4.10667 24.7477 4.048 25.0144 4.048C25.249 4.048 25.4357 4.112 25.5744 4.24C25.713 4.35733 25.7984 4.51733 25.8304 4.72C25.8624 4.912 25.825 5.12533 25.7184 5.36L21.8304 14.24C21.6917 14.5387 21.5424 14.7413 21.3824 14.848C21.2224 14.9547 21.0144 15.008 20.7584 15.008ZM28.2203 12.128C27.9003 12.128 27.6549 12.0427 27.4843 11.872C27.3136 11.6907 27.2283 11.4347 27.2283 11.104V5.056C27.2283 4.72533 27.3136 4.47467 27.4843 4.304C27.6549 4.13333 27.8949 4.048 28.2043 4.048C28.5136 4.048 28.7536 4.13333 28.9243 4.304C29.0949 4.47467 29.1803 4.72533 29.1803 5.056V6.224L29.0043 5.744C29.2176 5.21067 29.5483 4.78933 29.9963 4.48C30.4443 4.17067 30.9776 4.016 31.5963 4.016C32.2256 4.016 32.7429 4.16533 33.1483 4.464C33.5536 4.76267 33.8363 5.22133 33.9963 5.84H33.7723C33.9856 5.27467 34.3376 4.832 34.8283 4.512C35.3189 4.18133 35.8843 4.016 36.5243 4.016C37.1216 4.016 37.6123 4.13333 37.9963 4.368C38.3909 4.60267 38.6843 4.96 38.8763 5.44C39.0683 5.90933 39.1643 6.50667 39.1643 7.232V11.104C39.1643 11.4347 39.0736 11.6907 38.8923 11.872C38.7216 12.0427 38.4763 12.128 38.1563 12.128C37.8363 12.128 37.5909 12.0427 37.4203 11.872C37.2496 11.6907 37.1643 11.4347 37.1643 11.104V7.312C37.1643 6.71467 37.0629 6.27733 36.8603 6C36.6683 5.72267 36.3376 5.584 35.8683 5.584C35.3456 5.584 34.9349 5.77067 34.6363 6.144C34.3376 6.50667 34.1883 7.01333 34.1883 7.664V11.104C34.1883 11.4347 34.1029 11.6907 33.9323 11.872C33.7616 12.0427 33.5163 12.128 33.1963 12.128C32.8763 12.128 32.6256 12.0427 32.4443 11.872C32.2736 11.6907 32.1883 11.4347 32.1883 11.104V7.312C32.1883 6.71467 32.0869 6.27733 31.8843 6C31.6923 5.72267 31.3669 5.584 30.9083 5.584C30.3856 5.584 29.9749 5.77067 29.6763 6.144C29.3776 6.50667 29.2283 7.01333 29.2283 7.664V11.104C29.2283 11.7867 28.8923 12.128 28.2203 12.128ZM45.0835 12.16C44.1982 12.16 43.4355 11.9947 42.7955 11.664C42.1555 11.3333 41.6595 10.864 41.3075 10.256C40.9662 9.648 40.7955 8.928 40.7955 8.096C40.7955 7.28533 40.9608 6.576 41.2915 5.968C41.6328 5.36 42.0968 4.88533 42.6835 4.544C43.2808 4.192 43.9582 4.016 44.7155 4.016C45.2702 4.016 45.7662 4.10667 46.2035 4.288C46.6515 4.46933 47.0302 4.73067 47.3395 5.072C47.6595 5.41333 47.8995 5.82933 48.0595 6.32C48.2302 6.8 48.3155 7.344 48.3155 7.952C48.3155 8.144 48.2462 8.29333 48.1075 8.4C47.9795 8.496 47.7928 8.544 47.5475 8.544H42.4115V7.392H46.9075L46.6515 7.632C46.6515 7.14133 46.5768 6.73067 46.4275 6.4C46.2888 6.06933 46.0808 5.81867 45.8035 5.648C45.5368 5.46667 45.2008 5.376 44.7955 5.376C44.3475 5.376 43.9635 5.48267 43.6435 5.696C43.3342 5.89867 43.0942 6.192 42.9235 6.576C42.7635 6.94933 42.6835 7.39733 42.6835 7.92V8.032C42.6835 8.90667 42.8862 9.56267 43.2915 10C43.7075 10.4267 44.3155 10.64 45.1155 10.64C45.3928 10.64 45.7022 10.608 46.0435 10.544C46.3955 10.4693 46.7262 10.3467 47.0355 10.176C47.2595 10.048 47.4568 9.99467 47.6275 10.016C47.7982 10.0267 47.9315 10.0853 48.0275 10.192C48.1342 10.2987 48.1982 10.432 48.2195 10.592C48.2408 10.7413 48.2088 10.896 48.1235 11.056C48.0488 11.216 47.9155 11.3547 47.7235 11.472C47.3502 11.7067 46.9182 11.8827 46.4275 12C45.9475 12.1067 45.4995 12.16 45.0835 12.16ZM50.8914 12.128C50.5714 12.128 50.326 12.0427 50.1554 11.872C49.9847 11.6907 49.8994 11.4347 49.8994 11.104V5.056C49.8994 4.72533 49.9847 4.47467 50.1554 4.304C50.326 4.13333 50.566 4.048 50.8754 4.048C51.1847 4.048 51.4247 4.13333 51.5954 4.304C51.766 4.47467 51.8514 4.72533 51.8514 5.056V6.144L51.6754 5.744C51.91 5.17867 52.2727 4.752 52.7634 4.464C53.2647 4.16533 53.83 4.016 54.4594 4.016C55.0887 4.016 55.606 4.13333 56.0114 4.368C56.4167 4.60267 56.7207 4.96 56.9234 5.44C57.126 5.90933 57.2274 6.50667 57.2274 7.232V11.104C57.2274 11.4347 57.142 11.6907 56.9714 11.872C56.8007 12.0427 56.5554 12.128 56.2354 12.128C55.9154 12.128 55.6647 12.0427 55.4834 11.872C55.3127 11.6907 55.2274 11.4347 55.2274 11.104V7.328C55.2274 6.72 55.11 6.27733 54.8754 6C54.6514 5.72267 54.2994 5.584 53.8194 5.584C53.2327 5.584 52.7634 5.77067 52.4114 6.144C52.07 6.50667 51.8994 6.992 51.8994 7.6V11.104C51.8994 11.7867 51.5634 12.128 50.8914 12.128ZM62.8428 12.16C62.1494 12.16 61.5681 12.0427 61.0988 11.808C60.6401 11.5733 60.2988 11.232 60.0748 10.784C59.8508 10.3253 59.7388 9.76 59.7388 9.088V5.68H58.9068C58.6508 5.68 58.4534 5.616 58.3148 5.488C58.1761 5.34933 58.1067 5.16267 58.1067 4.928C58.1067 4.68267 58.1761 4.496 58.3148 4.368C58.4534 4.24 58.6508 4.176 58.9068 4.176H59.7388V2.72C59.7388 2.38933 59.8241 2.13867 59.9948 1.968C60.1761 1.79733 60.4268 1.712 60.7468 1.712C61.0668 1.712 61.3121 1.79733 61.4828 1.968C61.6534 2.13867 61.7388 2.38933 61.7388 2.72V4.176H63.4348C63.6908 4.176 63.8881 4.24 64.0268 4.368C64.1654 4.496 64.2348 4.68267 64.2348 4.928C64.2348 5.16267 64.1654 5.34933 64.0268 5.488C63.8881 5.616 63.6908 5.68 63.4348 5.68H61.7388V8.976C61.7388 9.488 61.8508 9.872 62.0748 10.128C62.2988 10.384 62.6614 10.512 63.1628 10.512C63.3441 10.512 63.5041 10.496 63.6428 10.464C63.7814 10.432 63.9041 10.4107 64.0108 10.4C64.1388 10.3893 64.2454 10.432 64.3308 10.528C64.4161 10.6133 64.4588 10.7947 64.4588 11.072C64.4588 11.2853 64.4214 11.4773 64.3468 11.648C64.2828 11.808 64.1601 11.92 63.9788 11.984C63.8401 12.0267 63.6588 12.064 63.4348 12.096C63.2108 12.1387 63.0134 12.16 62.8428 12.16Z" fill="#303446"/>
</svg>
